<?xml version="1.0" standalone="no"?>
<!DOCTYPE svg PUBLIC "-//W3C//DTD SVG 20010904//EN"
 "http://www.w3.org/TR/2001/REC-SVG-20010904/DTD/svg10.dtd">
<svg version="1.0" xmlns="http://www.w3.org/2000/svg"
 width="512.000000pt" height="512.000000pt" viewBox="0 0 512.000000 512.000000"
 preserveAspectRatio="xMidYMid meet">
<metadata>
Created by potrace 1.11, written by Peter Selinger 2001-2013
</metadata>
<g transform="translate(0.000000,512.000000) scale(0.100000,-0.100000)"
fill="#000000" stroke="none">
<path d="M2830 5048 c-12 -40 -23 -74 -24 -75 -2 -2 -21 6 -44 17 -44 22 -128
29 -197 18 -22 -4 -90 -21 -150 -38 -71 -21 -142 -34 -200 -37 -85 -5 -93 -3
-148 25 -44 22 -56 25 -53 13 3 -9 8 -28 11 -43 l7 -26 -43 15 c-85 29 -184 6
-364 -84 -55 -28 -125 -58 -155 -68 -62 -21 -165 -24 -199 -6 -22 12 -22 12
-7 -11 14 -21 70 -68 136 -111 l24 -17 -39 -1 c-83 -2 -205 -33 -287 -75 -99
-50 -161 -131 -152 -199 4 -30 2 -32 -59 -52 l-62 -20 52 -33 c29 -18 53 -34
53 -36 0 -2 -13 -10 -28 -18 -45 -23 -91 -77 -98 -113 -5 -25 1 -47 21 -88 38
-78 23 -111 -90 -193 -63 -47 -177 -161 -244 -247 l-52 -66 33 5 c111 14 142
16 132 9 -19 -13 -31 -75 -23 -108 5 -17 22 -44 39 -60 16 -16 30 -39 30 -52
0 -13 -17 -70 -39 -128 -21 -58 -36 -105 -34 -105 2 0 42 16 89 35 46 19 87
35 89 35 3 0 -1 -10 -9 -22 -17 -26 -30 -90 -28 -133 1 -16 4 -84 8 -151 5
-100 4 -125 -10 -152 -21 -41 -20 -53 3 -23 l18 24 7 -69 c5 -45 18 -90 39
-134 l32 -65 5 45 5 45 41 -80 c66 -128 66 -124 69 -483 1 -180 5 -334 8 -342
4 -8 8 -33 11 -55 20 -176 126 -457 238 -630 163 -251 387 -454 646 -585 155
-78 253 -110 412 -135 19 -3 46 -7 60 -10 76 -13 172 -19 315 -20 247 0 351
14 565 80 3 1 19 5 35 10 52 14 210 92 297 146 268 168 485 411 618 691 46 99
97 236 106 286 3 13 11 52 19 86 12 53 19 96 30 191 1 11 3 248 4 528 l1 507
43 0 c62 0 87 29 87 101 0 71 -28 106 -79 100 -38 -6 -39 5 -15 126 12 65 29
138 36 163 l14 45 19 -42 c11 -23 22 -43 25 -43 9 0 -5 245 -15 260 -2 3 -6
23 -9 45 -9 55 -44 186 -57 208 -9 16 -7 18 13 12 13 -4 35 -14 50 -21 16 -8
39 -19 53 -24 24 -9 25 -9 14 13 -21 39 -91 140 -136 196 -31 38 -41 57 -33
65 28 28 -11 116 -104 231 -46 58 -148 159 -183 182 -29 19 -26 22 22 28 21 3
41 7 43 10 6 6 -68 97 -137 170 -82 86 -167 160 -235 206 -32 21 -54 40 -50
41 5 0 14 2 19 3 6 2 24 3 40 4 29 2 29 2 10 17 -33 27 -176 90 -250 112 -99
30 -155 37 -280 37 -121 0 -170 -9 -159 -28 10 -20 -48 49 -96 113 -25 33 -57
76 -72 96 l-27 35 -21 -73z"/>
</g>
</svg>
